<svg width="225" height="80" viewBox="0 0 225 80" fill="none" xmlns="http://www.w3.org/2000/svg">
<rect y="0.948059" width="225" height="78.8961" rx="10" fill="#F9F9F9"/>
<g clip-path="url(#clip0_1_37)">
<mask id="mask0_1_37" style="mask-type:luminance" maskUnits="userSpaceOnUse" x="18" y="12" width="189" height="56">
<path d="M206.515 12.6364H18.263V67.6673H206.515V12.6364Z" fill="white"/>
</mask>
<g mask="url(#mask0_1_37)">
<path d="M20.0701 35.2217C20.0701 35.6991 19.8262 35.9434 19.3384 35.9434H18.9615C18.5069 35.9434 18.2741 35.6991 18.2741 35.2217V13.3248C18.2741 13.136 18.3295 12.9695 18.4515 12.8362C18.5734 12.703 18.7397 12.6364 18.9615 12.6364H19.3827C19.5712 12.6364 19.7375 12.703 19.8706 12.8251C20.0036 12.9473 20.0701 13.1138 20.0701 13.3248V26.383L32.5427 13.1249C32.6868 12.9806 32.8309 12.8584 32.9529 12.7696C33.0859 12.6808 33.2079 12.6364 33.3409 12.6364H35.0594C35.2811 12.6364 35.392 12.6808 35.392 12.7807C35.392 12.8584 35.3365 12.9473 35.2367 13.0472C35.2367 13.0472 35.2257 13.025 35.2257 13.0139H35.2146C35.2146 13.0139 35.2146 13.025 35.2478 13.0916L26.4561 22.3078L37.3765 35.3216C37.5317 35.5104 37.6093 35.6547 37.6093 35.7658C37.6093 35.8879 37.4984 35.9545 37.2656 35.9545H35.8243C35.7135 35.9545 35.6026 35.9101 35.4917 35.8324C35.392 35.7436 35.27 35.6325 35.1259 35.4771L25.2365 23.5737L20.0701 29.0368V35.2217Z" fill="#1D1D1B"/>
<path d="M41.1903 17.722C41.1903 17.4111 41.3455 17.2445 41.667 17.2445H42.4985C42.809 17.2445 42.9753 17.4 42.9753 17.722V21.3086C43.1748 20.9866 43.3855 20.6534 43.6072 20.3203C43.8289 19.9872 44.0728 19.6985 44.3278 19.4653C45.2037 18.6325 46.1904 17.9996 47.288 17.5555C48.3856 17.1113 49.5497 16.8892 50.7803 16.8892C51.6672 16.8892 52.5209 17.0003 53.3413 17.2334C54.1617 17.4666 54.9378 17.7886 55.6584 18.2217C56.3791 18.6547 57.0332 19.1544 57.6208 19.7429C58.2084 20.3314 58.7184 20.9866 59.1397 21.7083C59.561 22.4301 59.8936 23.1962 60.1264 24.029C60.3592 24.8618 60.4701 25.7168 60.4701 26.6052C60.4701 27.4935 60.3592 28.3485 60.1264 29.1813C59.8936 30.014 59.5721 30.7802 59.1397 31.502C58.7184 32.2237 58.2084 32.8789 57.6208 33.4674C57.0332 34.0559 56.3791 34.5666 55.6584 34.9886C54.9378 35.4105 54.1728 35.7437 53.3413 35.9768C52.5209 36.21 51.6672 36.3211 50.7803 36.3211C50.1594 36.3211 49.5497 36.2544 48.9621 36.1323C48.3745 35.999 47.798 35.8214 47.2436 35.5882C46.6893 35.355 46.1682 35.0774 45.6693 34.7554C45.1704 34.4334 44.7159 34.067 44.2835 33.6783C44.0174 33.4007 43.7846 33.1231 43.585 32.8455C43.3855 32.5679 43.1526 32.2459 42.8866 31.8795V41.3955C42.8866 41.4622 42.8644 41.5288 42.809 41.5732C42.7646 41.6176 42.6981 41.6509 42.6205 41.6509H41.5672C41.3012 41.662 41.1681 41.5288 41.1681 41.2623V17.722H41.1903ZM58.6629 26.5829C58.6629 25.5059 58.4634 24.4843 58.0532 23.5071C57.643 22.53 57.0886 21.675 56.3791 20.9421C55.6695 20.2093 54.838 19.6208 53.8846 19.1877C52.9311 18.7547 51.9111 18.5326 50.8357 18.5326C49.7603 18.5326 48.7071 18.7436 47.7315 19.1655C46.7558 19.5875 45.9021 20.1538 45.1704 20.8866C44.4387 21.6084 43.8622 22.4634 43.4298 23.4405C43.0085 24.4177 42.7979 25.4615 42.7979 26.5607C42.7979 27.66 43.0085 28.6816 43.4187 29.6587C43.8289 30.6359 44.3944 31.502 45.115 32.2459C45.8356 32.9899 46.6782 33.5784 47.6428 34.0114C48.6073 34.4556 49.6384 34.6666 50.736 34.6666C51.8335 34.6666 52.8646 34.4556 53.8291 34.0226C54.7937 33.5895 55.6363 33.0121 56.3458 32.2681C57.0554 31.5242 57.6319 30.6692 58.0421 29.692C58.4634 28.7149 58.674 27.6822 58.674 26.5829H58.6629Z" fill="#1D1D1B"/>
<path d="M81.2798 32.9676L81.2355 31.8461C80.8363 32.5234 80.3707 33.1453 79.8053 33.6893C79.2509 34.2334 78.6301 34.6998 77.9538 35.0884C77.2775 35.4771 76.5569 35.7658 75.7919 35.9769C75.0269 36.1878 74.2287 36.2877 73.3972 36.2877C72.5102 36.2877 71.6566 36.1766 70.8361 35.9434C70.0157 35.7104 69.2397 35.3771 68.519 34.9552C67.7984 34.5221 67.1443 34.0114 66.5456 33.4229C65.9469 32.8343 65.4369 32.1792 65.0156 31.4575C64.5943 30.7357 64.2617 29.9695 64.0289 29.1367C63.7961 28.304 63.6852 27.4601 63.6852 26.5717C63.6852 25.6834 63.7961 24.8284 64.0289 24.0067C64.2617 23.1851 64.5943 22.4078 65.0156 21.6861C65.448 20.9643 65.958 20.3092 66.5456 19.7207C67.1332 19.1322 67.7873 18.6214 68.5079 18.1884C69.2286 17.7553 69.9935 17.4333 70.825 17.2001C71.6455 16.9669 72.4991 16.8559 73.3861 16.8559C74.1954 16.8559 74.9826 16.9558 75.7586 17.1668C76.5347 17.3778 77.2553 17.6776 77.9427 18.0662C78.619 18.4549 79.2509 18.9323 79.8164 19.4764C80.3818 20.0316 80.8696 20.6423 81.2687 21.3308V17.6887C81.2687 17.3778 81.4239 17.2112 81.7233 17.2112H82.4883C82.8209 17.2112 82.9872 17.3667 82.9872 17.6887V35.4771C82.9872 35.6436 82.9317 35.7658 82.8209 35.8435C82.71 35.9212 82.588 35.9545 82.4328 35.9545H81.8231C81.435 35.9545 81.2466 35.7769 81.2466 35.4217V32.9898L81.2798 32.9676ZM81.3685 26.5606C81.3685 25.4836 81.1468 24.462 80.7144 23.496C80.282 22.53 79.6944 21.675 78.9738 20.9421C78.2421 20.2093 77.3995 19.6208 76.4349 19.1877C75.4704 18.7547 74.4504 18.5326 73.3861 18.5215H73.3417C72.2885 18.5215 71.2796 18.7436 70.3372 19.1766C69.3838 19.6097 68.5523 20.1982 67.8316 20.931C67.111 21.6639 66.5456 22.5189 66.1132 23.4849C65.6919 24.4509 65.4813 25.4725 65.4813 26.5495C65.4813 27.6266 65.6808 28.6482 66.091 29.6364C66.5012 30.6136 67.0556 31.4797 67.7651 32.2236C68.4747 32.9676 69.3062 33.5561 70.2596 34.0003C71.2131 34.4333 72.2331 34.6554 73.3085 34.6554C74.3839 34.6554 75.4371 34.4444 76.4238 34.0114C77.4106 33.5783 78.2642 33.0009 78.9849 32.268C79.7055 31.5352 80.2931 30.6802 80.7255 29.703C81.1579 28.7259 81.3685 27.6821 81.3685 26.5829V26.5606Z" fill="#1D1D1B"/>
<path d="M101.779 20.6201C101.779 20.6201 101.735 20.6645 101.702 20.6979C101.668 20.7312 101.635 20.7423 101.58 20.7423C101.502 20.7423 101.402 20.6868 101.302 20.5757C101.18 20.4536 100.992 20.287 100.737 20.0538C100.471 19.8318 100.127 19.5986 99.6948 19.3654C99.2625 19.1322 98.7414 18.9323 98.1205 18.7547C97.4997 18.5881 96.779 18.4993 95.9586 18.4993C94.9165 18.4993 93.9187 18.7103 92.9541 19.1322C92.0007 19.5542 91.1581 20.1316 90.4264 20.8644C89.6946 21.5973 89.1181 22.4523 88.6857 23.4294C88.2534 24.4066 88.0316 25.4392 88.0316 26.5385C88.0316 27.6378 88.2423 28.6705 88.6636 29.6476C89.0849 30.6248 89.6503 31.4798 90.3709 32.2237C91.0916 32.9677 91.9231 33.5562 92.8765 33.9892C93.83 34.4223 94.8389 34.6444 95.9032 34.6444C96.4243 34.6444 96.9121 34.6 97.3555 34.5222C97.799 34.4445 98.2203 34.3335 98.6083 34.1891C98.9964 34.0448 99.3733 33.8782 99.717 33.6783C100.061 33.4785 100.404 33.2675 100.737 33.0232C100.804 32.9788 100.892 32.9122 100.992 32.8233C101.092 32.7345 101.203 32.6568 101.302 32.5902C101.402 32.5235 101.502 32.4569 101.591 32.4014C101.679 32.3459 101.757 32.3237 101.812 32.3237C101.901 32.3237 102.001 32.3792 102.112 32.5013C102.278 32.7234 102.4 32.9122 102.478 33.0454C102.555 33.1787 102.588 33.2786 102.588 33.3452C102.588 33.3896 102.566 33.4229 102.533 33.4674C102.577 33.5229 102.588 33.5784 102.588 33.6117C102.367 33.9115 102.056 34.2002 101.646 34.4889C100.848 35.0552 99.9831 35.4994 99.0629 35.8214C98.1427 36.1434 97.1338 36.31 96.0251 36.31C95.1493 36.31 94.2956 36.1989 93.4752 35.9657C92.6548 35.7326 91.8787 35.4105 91.1581 34.9775C90.4374 34.5555 89.7833 34.0448 89.1846 33.4563C88.586 32.8677 88.076 32.2126 87.6436 31.4909C87.2112 30.7691 86.8786 30.0029 86.6458 29.1702C86.413 28.3485 86.291 27.4935 86.291 26.6052C86.291 25.7168 86.413 24.8618 86.6458 24.029C86.8786 23.1962 87.2112 22.4301 87.6436 21.7083C88.076 20.9866 88.586 20.3314 89.1846 19.7429C89.7833 19.1544 90.4374 18.6436 91.1581 18.2217C91.8787 17.7997 92.6437 17.4666 93.4752 17.2334C94.2956 17.0003 95.1493 16.8892 96.0251 16.8892C96.6127 16.8892 97.2003 16.9447 97.7658 17.0558C98.3312 17.1668 98.8744 17.3223 99.3955 17.5221C99.9166 17.722 100.415 17.9552 100.87 18.2217C101.336 18.4882 101.757 18.788 102.145 19.0989L102.178 19.1322C102.267 19.2099 102.345 19.2877 102.422 19.3543C102.5 19.4209 102.533 19.5097 102.533 19.6208C102.533 19.7207 102.467 19.8429 102.345 19.9872L101.801 20.6423L101.779 20.6201Z" fill="#1D1D1B"/>
<path d="M110.15 24.3289C110.948 23.5405 111.746 22.7521 112.555 21.9415C113.365 21.142 114.174 20.3426 114.961 19.5653C115.759 18.788 116.491 18.0552 117.19 17.3778C117.234 17.3334 117.289 17.289 117.356 17.2557C117.411 17.2224 117.489 17.2002 117.567 17.2002H118.897C119.008 17.2002 119.085 17.2335 119.13 17.3001C119.174 17.3667 119.207 17.4333 119.23 17.5C119.23 17.6221 119.196 17.7332 119.13 17.8553C117.988 18.9768 116.846 20.0983 115.704 21.2087C114.562 22.3191 113.42 23.4406 112.278 24.5731L121.58 35.244C121.669 35.3772 121.713 35.4994 121.713 35.5993C121.713 35.6992 121.669 35.7659 121.569 35.8103C121.469 35.8547 121.347 35.888 121.214 35.8991C121.081 35.9102 120.926 35.9213 120.782 35.9102C120.627 35.9102 120.494 35.9102 120.394 35.9102C120.239 35.9102 120.083 35.8991 119.939 35.8658C119.795 35.8325 119.695 35.7548 119.64 35.6326L118.919 34.822L111.114 25.7502L107.966 28.7593V35.4661C107.966 35.777 107.81 35.9435 107.5 35.9435H106.724C106.424 35.9435 106.269 35.7881 106.269 35.4661V17.7554C106.269 17.4445 106.424 17.3001 106.724 17.3001H107.5C107.633 17.3001 107.744 17.3445 107.832 17.4222C107.921 17.5111 107.966 17.6221 107.966 17.7554V26.5163C108.642 25.8501 109.385 25.1172 110.172 24.3289H110.15Z" fill="#1D1D1B"/>
<path d="M140.815 34.9663C140.815 35.144 140.76 35.2772 140.66 35.3771C140.56 35.466 140.427 35.5215 140.261 35.5215H139.662C139.485 35.5215 139.352 35.466 139.263 35.366C139.175 35.2661 139.119 35.1329 139.119 34.9774V32.801C138.698 33.4451 138.221 33.9669 137.689 34.3778C137.157 34.7886 136.614 35.1106 136.048 35.3438C135.483 35.577 134.928 35.7325 134.385 35.8213C133.842 35.9101 133.332 35.9434 132.866 35.9434C131.735 35.9434 130.704 35.7325 129.762 35.3216C128.831 34.9108 128.032 34.3445 127.367 33.6227C126.702 32.901 126.192 32.0682 125.826 31.1021C125.46 30.1472 125.283 29.1256 125.283 28.0375V17.4555C125.283 17.2334 125.338 17.0779 125.449 16.9669C125.56 16.8558 125.693 16.8003 125.871 16.8003H126.414C126.636 16.8003 126.791 16.8447 126.868 16.9447C126.946 17.0446 126.99 17.2112 126.99 17.4332V28.0597C127.024 28.8258 127.168 29.5809 127.445 30.3138C127.722 31.0466 128.11 31.7018 128.609 32.2792C129.108 32.8566 129.729 33.3118 130.46 33.6671C131.192 34.0225 132.024 34.189 132.966 34.189C133.731 34.189 134.463 34.0447 135.194 33.7671C135.915 33.4895 136.569 33.0897 137.135 32.579C137.7 32.0682 138.177 31.4575 138.532 30.7468C138.897 30.0362 139.086 29.2478 139.119 28.3928V17.2778C139.119 16.9669 139.263 16.8003 139.563 16.8003H140.339C140.649 16.8003 140.804 16.9558 140.804 17.2778V21.3751C140.804 21.3751 140.815 21.464 140.815 21.5417V34.9663Z" fill="#1D1D1B"/>
<path d="M170.184 34.9663C170.184 35.144 170.129 35.2772 170.029 35.3771C169.929 35.466 169.796 35.5215 169.63 35.5215H169.031C168.854 35.5215 168.721 35.466 168.632 35.366C168.543 35.2661 168.488 35.1329 168.488 34.9774V32.801C168.067 33.4451 167.59 33.9669 167.058 34.3778C166.526 34.7886 165.982 35.1106 165.417 35.3438C164.851 35.577 164.297 35.7325 163.754 35.8213C163.211 35.9101 162.701 35.9434 162.235 35.9434C161.104 35.9434 160.073 35.7325 159.131 35.3216C158.199 34.9108 157.401 34.3445 156.736 33.6227C156.071 32.901 155.561 32.0682 155.195 31.1021C154.829 30.1472 154.652 29.1256 154.652 28.0375V17.4555C154.652 17.2334 154.707 17.0779 154.818 16.9669C154.929 16.8558 155.062 16.8003 155.239 16.8003H155.782C156.004 16.8003 156.159 16.8447 156.237 16.9447C156.315 17.0446 156.359 17.2112 156.359 17.4332V28.0597C156.392 28.8258 156.536 29.5809 156.814 30.3138C157.091 31.0466 157.479 31.7018 157.978 32.2792C158.477 32.8566 159.097 33.3118 159.829 33.6671C160.561 34.0225 161.392 34.189 162.335 34.189C163.1 34.189 163.831 34.0447 164.563 33.7671C165.284 33.4895 165.938 33.0897 166.503 32.579C167.069 32.0682 167.545 31.4575 167.9 30.7468C168.266 30.0362 168.455 29.2478 168.488 28.3928V17.2778C168.488 16.9669 168.632 16.8003 168.931 16.8003H169.707C170.018 16.8003 170.173 16.9558 170.173 17.2778V21.3751C170.173 21.3751 170.184 21.464 170.184 21.5417V34.9663Z" fill="#1D1D1B"/>
<path d="M68.907 67.2342C68.8294 67.4341 68.6964 67.5562 68.4968 67.6006C68.3084 67.645 68.1088 67.6673 67.8981 67.6673C67.5877 67.6673 67.366 67.6339 67.2329 67.5784C67.0999 67.5229 67.0223 67.3897 67.0223 67.1787C67.0223 67.1343 67.0223 67.0788 67.0334 67.0343C67.0334 66.9899 67.0556 66.9455 67.0666 66.9344L69.3394 61.2048L62.1885 43.9493C62.1885 43.9493 62.1331 43.805 62.1331 43.6384C62.1331 43.4275 62.2217 43.3053 62.3881 43.2609C62.5544 43.2165 62.7983 43.1943 63.1087 43.1943C63.3082 43.1943 63.4967 43.2165 63.6741 43.2498C63.8515 43.2942 63.9735 43.3941 64.04 43.5607L64.3947 44.4157C64.6719 45.0819 64.9713 45.8259 65.2928 46.6365C65.6143 47.4471 65.958 48.2799 66.3017 49.1571C66.6564 50.0232 67.0112 50.9115 67.3771 51.7998C67.7429 52.6881 68.0977 53.5653 68.4525 54.4203C68.8073 55.2753 69.1399 56.0859 69.4503 56.8632C69.7607 57.6404 70.0601 58.34 70.3261 58.9729C70.6033 58.3067 70.9026 57.5516 71.2463 56.741C71.5789 55.9193 71.9337 55.0643 72.2996 54.1649C72.6654 53.2655 73.0313 52.3439 73.4193 51.4112C73.8074 50.4784 74.1732 49.5457 74.5391 48.6352C74.9049 47.7247 75.2597 46.8363 75.6034 45.9813C75.9471 45.1263 76.2686 44.338 76.568 43.6162C76.6788 43.3275 76.8673 43.1832 77.1445 43.1832H77.9538C78.3197 43.1832 78.497 43.3386 78.497 43.6606C78.497 43.705 78.497 43.7606 78.4638 43.8272C78.4416 43.8827 78.4305 43.9271 78.4305 43.9493L68.907 67.2453V67.2342Z" fill="#1D1D1B"/>
<path d="M84.5171 50.3119C85.3154 49.5235 86.1136 48.7351 86.9229 47.9245C87.7323 47.125 88.5416 46.3256 89.3288 45.5483C90.127 44.771 90.8587 44.0382 91.5572 43.3608C91.6015 43.3164 91.657 43.272 91.7235 43.2387C91.7789 43.2054 91.8565 43.1832 91.9341 43.1832H93.2645C93.3754 43.1832 93.453 43.2165 93.4974 43.2831C93.5417 43.3497 93.575 43.4163 93.5971 43.483C93.5971 43.6051 93.5639 43.7162 93.4974 43.8383C92.3554 44.9598 91.2135 46.0813 90.0716 47.1917C88.9296 48.3021 87.7877 49.4236 86.6458 50.5562L95.9475 61.227C96.0362 61.3602 96.0806 61.4824 96.0806 61.5823C96.0806 61.6823 96.0362 61.7489 95.9364 61.7933C95.8367 61.8377 95.7147 61.871 95.5817 61.8821C95.4486 61.8932 95.2934 61.9043 95.1493 61.8932C94.9941 61.8932 94.861 61.8932 94.7612 61.8932C94.606 61.8932 94.4508 61.8821 94.3067 61.8488C94.1626 61.8155 94.0628 61.7378 94.0074 61.6156L93.2867 60.805L85.4817 51.7332L82.333 54.7423V61.4491C82.333 61.7711 82.1778 61.9265 81.8674 61.9265H81.0913C80.792 61.9265 80.6368 61.7711 80.6368 61.4491V43.7495C80.6368 43.4386 80.792 43.2942 81.0913 43.2942H81.8674C82.0004 43.2942 82.1113 43.3386 82.2 43.4163C82.2887 43.5052 82.333 43.6162 82.333 43.7495V52.5104C83.0093 51.8442 83.7521 51.1113 84.5393 50.323L84.5171 50.3119Z" fill="#1D1D1B"/>
<path d="M113.021 58.9729L112.977 57.8514C112.578 58.5287 112.112 59.1506 111.547 59.6947C110.992 60.2387 110.371 60.7051 109.695 61.0937C109.019 61.4824 108.298 61.7711 107.533 61.9821C106.768 62.193 105.97 62.293 105.138 62.293C104.251 62.293 103.398 62.1819 102.577 61.9487C101.757 61.7156 100.981 61.3824 100.26 60.9605C99.5396 60.5274 98.8855 60.0167 98.2868 59.4282C97.6881 58.8396 97.1782 58.1845 96.7569 57.4628C96.3356 56.741 96.003 55.9748 95.7701 55.1421C95.5373 54.3093 95.4265 53.4654 95.4265 52.5771C95.4265 51.6887 95.5373 50.8337 95.7701 50.0121C96.003 49.1904 96.3356 48.4131 96.7569 47.6913C97.1782 46.9696 97.6992 46.3145 98.2868 45.7259C98.8744 45.1374 99.5285 44.6267 100.249 44.1936C100.97 43.7606 101.735 43.4385 102.566 43.2054C103.387 42.9722 104.24 42.8611 105.127 42.8611C105.937 42.8611 106.724 42.9611 107.5 43.1721C108.276 43.383 108.997 43.6828 109.684 44.0715C110.36 44.4601 110.992 44.9376 111.558 45.4817C112.123 46.0369 112.611 46.6476 113.01 47.336V43.6939C113.01 43.383 113.165 43.2165 113.465 43.2165H114.23C114.562 43.2165 114.728 43.3719 114.728 43.6939V61.4824C114.728 61.6489 114.673 61.7711 114.562 61.8488C114.451 61.9265 114.329 61.9598 114.174 61.9598H113.564C113.176 61.9598 112.988 61.7822 112.988 61.4269V58.9951L113.021 58.9729ZM113.11 52.5659C113.11 51.4889 112.888 50.4673 112.456 49.5013C112.023 48.5352 111.436 47.6802 110.715 46.9474C109.983 46.2145 109.141 45.626 108.176 45.193C107.212 44.7599 106.192 44.5378 105.127 44.5267H105.083C104.03 44.5267 103.021 44.7488 102.078 45.1819C101.125 45.6149 100.294 46.2034 99.5729 46.9363C98.8522 47.6691 98.2868 48.5241 97.8544 49.4902C97.4331 50.4562 97.2225 51.4778 97.2225 52.5548C97.2225 53.6319 97.4221 54.6535 97.8323 55.6417C98.2425 56.6189 98.7968 57.485 99.5064 58.2289C100.216 58.9729 101.047 59.5614 102.001 60.0056C102.954 60.4386 103.974 60.6607 105.05 60.6607C106.125 60.6607 107.178 60.4497 108.165 60.0167C109.141 59.5836 110.005 59.0062 110.726 58.2733C111.447 57.5405 112.034 56.6855 112.467 55.7084C112.899 54.7312 113.11 53.6874 113.11 52.5882V52.5659Z" fill="#1D1D1B"/>
<path d="M140.35 67.2342C140.272 67.4341 140.139 67.5562 139.94 67.6006C139.751 67.645 139.552 67.6673 139.341 67.6673C139.03 67.6673 138.809 67.6339 138.676 67.5784C138.543 67.5229 138.465 67.3897 138.465 67.1787C138.465 67.1343 138.465 67.0788 138.476 67.0343C138.476 66.9899 138.498 66.9455 138.509 66.9344L140.782 61.2048L133.631 43.9493C133.631 43.9493 133.576 43.805 133.576 43.6384C133.576 43.4275 133.664 43.3053 133.831 43.2609C133.997 43.2165 134.241 43.1943 134.551 43.1943C134.751 43.1943 134.939 43.2165 135.117 43.2498C135.294 43.2942 135.416 43.3941 135.483 43.5607L135.837 44.4157C136.115 45.0819 136.414 45.8259 136.736 46.6365C137.057 47.4471 137.401 48.2799 137.744 49.1571C138.099 50.0232 138.454 50.9115 138.82 51.7998C139.186 52.6881 139.54 53.5653 139.895 54.4203C140.25 55.2753 140.583 56.0859 140.893 56.8632C141.203 57.6404 141.503 58.34 141.769 58.9729C142.046 58.3067 142.345 57.5516 142.689 56.741C143.022 55.9193 143.376 55.0643 143.742 54.1649C144.108 53.2655 144.474 52.3439 144.862 51.4112C145.25 50.4784 145.616 49.5457 145.982 48.6352C146.348 47.7247 146.702 46.8363 147.046 45.9813C147.39 45.1263 147.711 44.338 148.011 43.6162C148.122 43.3275 148.31 43.1832 148.587 43.1832H149.397C149.762 43.1832 149.94 43.3386 149.94 43.6606C149.94 43.705 149.94 43.7606 149.907 43.8272C149.884 43.8827 149.873 43.9271 149.873 43.9493L140.35 67.2453V67.2342Z" fill="#1D1D1B"/>
<path d="M152.844 43.7273C152.844 43.4164 153 43.2498 153.321 43.2498H154.153C154.463 43.2498 154.629 43.4052 154.629 43.7273V47.3138C154.829 46.9918 155.04 46.6587 155.261 46.3256C155.483 45.9925 155.727 45.7038 155.982 45.4706C156.858 44.6378 157.845 44.0049 158.942 43.5607C160.04 43.1165 161.204 42.8945 162.434 42.8945C163.321 42.8945 164.175 43.0055 164.996 43.2387C165.816 43.4719 166.592 43.7939 167.313 44.2269C168.033 44.6489 168.687 45.1597 169.275 45.7482C169.863 46.3367 170.373 46.9918 170.794 47.7136C171.215 48.4353 171.548 49.2015 171.781 50.0343C172.013 50.8671 172.124 51.7221 172.124 52.6104C172.124 53.4987 172.013 54.3537 171.781 55.1865C171.548 56.0193 171.226 56.7854 170.794 57.5072C170.373 58.2289 169.863 58.8841 169.275 59.4726C168.687 60.0611 168.033 60.5719 167.313 60.9938C166.592 61.4158 165.827 61.7489 164.996 61.9821C164.164 62.2152 163.321 62.3263 162.434 62.3263C161.814 62.3263 161.204 62.2597 160.616 62.1375C160.029 62.0043 159.452 61.8266 158.898 61.5934C158.344 61.3602 157.822 61.0826 157.324 60.7606C156.825 60.4386 156.37 60.0722 155.938 59.6836C155.672 59.406 155.439 59.1284 155.239 58.8508C155.04 58.5732 154.807 58.2512 154.541 57.8847V67.4008C154.541 67.4674 154.519 67.534 154.463 67.5784C154.419 67.6228 154.352 67.6562 154.275 67.6562H153.221C152.955 67.6673 152.822 67.534 152.822 67.2675V43.7495L152.844 43.7273ZM170.317 52.5882C170.317 51.5111 170.118 50.4895 169.707 49.5124C169.297 48.5352 168.743 47.6802 168.033 46.9474C167.324 46.2145 166.492 45.626 165.539 45.193C164.585 44.7599 163.565 44.5378 162.49 44.5378C161.415 44.5378 160.361 44.7488 159.386 45.1708C158.41 45.5927 157.556 46.159 156.825 46.8919C156.093 47.6136 155.516 48.4686 155.084 49.4458C154.663 50.4229 154.452 51.4667 154.452 52.566C154.452 53.6652 154.663 54.6868 155.073 55.6639C155.483 56.6411 156.049 57.5072 156.769 58.2512C157.49 58.9951 158.332 59.5836 159.297 60.0167C160.262 60.4608 161.293 60.6718 162.39 60.6718C163.488 60.6718 164.519 60.4608 165.483 60.0278C166.448 59.5947 167.29 59.0173 168 58.2734C168.71 57.5294 169.286 56.6744 169.696 55.6973C170.118 54.7201 170.328 53.6875 170.328 52.5882H170.317Z" fill="#1D1D1B"/>
<path d="M178.322 50.3452C179.12 49.5568 179.918 48.7684 180.728 47.9579C181.537 47.1584 182.346 46.3589 183.133 45.5816C183.932 44.8043 184.663 44.0715 185.362 43.3942C185.406 43.3497 185.462 43.3053 185.528 43.272C185.584 43.2387 185.661 43.2165 185.739 43.2165H187.069C187.18 43.2165 187.258 43.2498 187.302 43.3164C187.346 43.383 187.38 43.4497 187.402 43.5163C187.402 43.6384 187.369 43.7495 187.302 43.8716C186.16 44.9931 185.018 46.1146 183.876 47.225C182.734 48.3354 181.592 49.4569 180.45 50.5895L189.752 61.2603C189.841 61.3936 189.885 61.5157 189.885 61.6156C189.885 61.7156 189.841 61.7822 189.741 61.8266C189.641 61.871 189.519 61.9043 189.386 61.9155C189.253 61.9266 189.098 61.9377 188.954 61.9266C188.799 61.9266 188.666 61.9266 188.566 61.9266C188.411 61.9266 188.255 61.9154 188.111 61.8821C187.967 61.8488 187.867 61.7711 187.812 61.649L187.091 60.8384L179.286 51.7665L176.138 54.7756V61.4824C176.138 61.8044 175.982 61.9599 175.672 61.9599H174.896C174.597 61.9599 174.441 61.8044 174.441 61.4824V43.7828C174.441 43.4719 174.597 43.3275 174.896 43.3275H175.672C175.805 43.3275 175.916 43.3719 176.005 43.4497C176.093 43.5385 176.138 43.6495 176.138 43.7828V52.5438C176.814 51.8775 177.557 51.1447 178.344 50.3563L178.322 50.3452Z" fill="#1D1D1B"/>
<path d="M206.515 60.9715C206.515 61.1491 206.46 61.2824 206.36 61.3823C206.26 61.4712 206.127 61.5267 205.961 61.5267H205.362C205.185 61.5267 205.052 61.4712 204.963 61.3712C204.874 61.2713 204.819 61.138 204.819 60.9826V58.8062C204.398 59.4502 203.921 59.9721 203.389 60.383C202.857 60.7938 202.313 61.1158 201.748 61.349C201.183 61.5822 200.628 61.7377 200.085 61.8265C199.542 61.9153 199.032 61.9486 198.566 61.9486C197.435 61.9486 196.404 61.7377 195.462 61.3268C194.531 60.916 193.732 60.3497 193.067 59.6279C192.402 58.9062 191.892 58.0734 191.526 57.1073C191.16 56.1524 190.983 55.1308 190.983 54.0427V43.4717C190.983 43.2497 191.038 43.0942 191.149 42.9832C191.26 42.8721 191.393 42.8166 191.57 42.8166H192.114C192.335 42.8166 192.491 42.861 192.568 42.961C192.646 43.0609 192.69 43.2275 192.69 43.4495V54.076C192.723 54.8421 192.868 55.5972 193.145 56.3301C193.422 57.0629 193.81 57.718 194.309 58.2954C194.808 58.8728 195.429 59.3281 196.16 59.6834C196.892 60.0388 197.724 60.2053 198.666 60.2053C199.431 60.2053 200.163 60.061 200.894 59.7834C201.626 59.5058 202.269 59.106 202.834 58.5953C203.4 58.0845 203.877 57.4738 204.231 56.7631C204.597 56.0525 204.786 55.2641 204.819 54.4091V43.283C204.819 42.961 204.963 42.8055 205.262 42.8055H206.039C206.349 42.8055 206.504 42.961 206.504 43.283V47.3803C206.504 47.3803 206.515 47.4691 206.515 47.5469V60.9715Z" fill="#1D1D1B"/>
<path d="M123.199 43.7051C123.199 43.3942 123.354 43.2276 123.675 43.2276H124.463C124.773 43.2276 124.939 43.3831 124.939 43.7051V61.4713C124.939 61.7934 124.784 61.9488 124.485 61.9488H123.72C123.387 61.9488 123.221 61.7934 123.221 61.4713V43.7051H123.199Z" fill="#1D1D1B"/>
<path d="M130.727 43.1832H117.411C117.245 43.1832 117.123 43.2165 117.046 43.272C116.968 43.3275 116.924 43.4497 116.924 43.6162V44.3158C116.924 44.4823 116.968 44.6045 117.046 44.6711C117.123 44.7377 117.245 44.771 117.411 44.771H130.727C131.048 44.771 131.214 44.5934 131.214 44.2491V43.6606C131.214 43.3497 131.048 43.1832 130.727 43.1832Z" fill="black"/>
<path d="M51.4455 43.7051C51.4455 43.3942 51.6007 43.2276 51.9222 43.2276H52.7094C53.0198 43.2276 53.1861 43.3831 53.1861 43.7051V61.4713C53.1861 61.7934 53.0309 61.9488 52.7316 61.9488H51.9666C51.634 61.9488 51.4677 61.7934 51.4677 61.4713V43.7051H51.4455Z" fill="#1D1D1B"/>
<path d="M58.9734 43.1832H45.6582C45.4919 43.1832 45.37 43.2165 45.2924 43.272C45.2148 43.3275 45.1704 43.4497 45.1704 43.6162V44.3158C45.1704 44.4823 45.2148 44.6045 45.2924 44.6711C45.37 44.7377 45.4919 44.771 45.6582 44.771H58.9734C59.2949 44.771 59.4612 44.5934 59.4612 44.2491V43.6606C59.4612 43.3497 59.2949 43.1832 58.9734 43.1832Z" fill="black"/>
<path d="M40.9907 43.7051C40.9907 43.3942 41.1459 43.2276 41.4675 43.2276H42.2546C42.565 43.2276 42.7313 43.3831 42.7313 43.7051V61.4713C42.7313 61.7934 42.5761 61.9488 42.2768 61.9488H41.5118C41.1792 61.9488 41.0129 61.7934 41.0129 61.4713V43.7051H40.9907Z" fill="#1D1D1B"/>
<path d="M18.263 43.7051C18.263 43.3942 18.4182 43.2276 18.7397 43.2276H19.5269C19.8373 43.2276 20.0036 43.3831 20.0036 43.7051V61.4713C20.0036 61.7934 19.8484 61.9488 19.549 61.9488H18.7619C18.4293 61.9488 18.263 61.7934 18.263 61.4713V43.7051Z" fill="#1D1D1B"/>
<path d="M42.2546 60.2056C42.565 60.2056 42.7313 60.361 42.7313 60.683V61.4714C42.7313 61.7823 42.5761 61.9489 42.2546 61.9489H18.7619C18.4404 61.9489 18.2852 61.7934 18.2852 61.4936V60.7275C18.2852 60.3943 18.4404 60.2278 18.7619 60.2278H42.2546V60.2056Z" fill="#1D1D1B"/>
<path d="M29.6268 43.7051C29.6268 43.3942 29.782 43.2276 30.1036 43.2276H30.8907C31.2011 43.2276 31.3674 43.3831 31.3674 43.7051V61.4713C31.3674 61.7934 31.2122 61.9488 30.9129 61.9488H30.1479C29.8153 61.9488 29.649 61.7934 29.649 61.4713V43.7051H29.6268Z" fill="#1D1D1B"/>
<path d="M132.999 32.3124C135.277 32.3124 137.124 30.4631 137.124 28.1818C137.124 25.9005 135.277 24.0511 132.999 24.0511C130.721 24.0511 128.875 25.9005 128.875 28.1818C128.875 30.4631 130.721 32.3124 132.999 32.3124Z" fill="#00A19A"/>
<path d="M73.3528 30.9134C75.6306 30.9134 77.4771 29.064 77.4771 26.7827C77.4771 24.5014 75.6306 22.6521 73.3528 22.6521C71.0751 22.6521 69.2286 24.5014 69.2286 26.7827C69.2286 29.064 71.0751 30.9134 73.3528 30.9134Z" fill="#A48A7B"/>
<path d="M162.423 56.6966C164.701 56.6966 166.548 54.8472 166.548 52.5659C166.548 50.2847 164.701 48.4353 162.423 48.4353C160.145 48.4353 158.299 50.2847 158.299 52.5659C158.299 54.8472 160.145 56.6966 162.423 56.6966Z" fill="#CA9E67"/>
</g>
</g>
<defs>
<clipPath id="clip0_1_37">
<rect width="188.474" height="55.5195" fill="white" transform="translate(18.263 12.6364)"/>
</clipPath>
</defs>
</svg>
